<svg width="32" height="32" viewBox="0 0 32 32" fill="none" xmlns="http://www.w3.org/2000/svg">
  <path d="M6.66667 24H4V28H6.66667V24Z" fill="#FF5722"/>
  <path d="M28 24H25.3333V28H28V24Z" fill="#FF5722"/>
  <path d="M24 12L20 4H12L8 12L4 14V22H28V14L24 12ZM12 18C10.9391 18 9.92172 17.5786 9.17157 16.8284C8.42143 16.0783 8 15.0609 8 14C8 12.9391 8.42143 11.9217 9.17157 11.1716C9.92172 10.4214 10.9391 10 12 10C13.0609 10 14.0783 10.4214 14.8284 11.1716C15.5786 11.9217 16 12.9391 16 14C16 15.0609 15.5786 16.0783 14.8284 16.8284C14.0783 17.5786 13.0609 18 12 18ZM20 18C18.9391 18 17.9217 17.5786 17.1716 16.8284C16.4214 16.0783 16 15.0609 16 14C16 12.9391 16.4214 11.9217 17.1716 11.1716C17.9217 10.4214 18.9391 10 20 10C21.0609 10 22.0783 10.4214 22.8284 11.1716C23.5786 11.9217 24 12.9391 24 14C24 15.0609 23.5786 16.0783 22.8284 16.8284C22.0783 17.5786 21.0609 18 20 18Z" fill="#FF5722"/>
</svg> 