<svg width="80" height="40" viewBox="0 0 80 40" fill="none" xmlns="http://www.w3.org/2000/svg">
<path d="M26.3101 11.2806L27.3041 5.72685H14.5958C13.4004 5.72685 12.2931 6.1531 11.2991 6.99306C10.3051 7.83302 9.68855 8.86104 9.48723 10.052L7.75084 19.931C7.71116 20.1756 7.69013 20.4229 7.68793 20.6706C7.68793 21.6987 8.02766 22.5512 8.70712 23.2281C9.38657 23.9051 10.2548 24.2436 11.3117 24.2436H24.0201L25.0141 18.6898H13.5388L14.8474 11.2806H26.3101Z" fill="white"/>
<path d="M46.7065 5.71438H38.3391L36.0365 11.0926H41.7238V14.9665H34.3756L30.3995 24.2437H35.9988L37.7729 20.0439H42.1391L42.4914 24.2437H48.0655L46.7065 5.71438Z" fill="white"/>
<path d="M73.0167 6.72985C72.3372 6.05287 71.469 5.71438 70.4121 5.71438H57.7037L56.7474 11.0926H68.8393L68.0717 14.9539H56.068L54.4197 24.2437H59.9937L60.6858 20.0564H66.587L65.895 24.2437H71.469L72.4756 19.3794C72.4775 19.2748 72.4733 19.1701 72.4631 19.066C72.4631 18.5269 72.1862 17.9126 71.62 17.2106C72.5763 16.4082 73.1048 15.6811 73.2054 15.0417L73.973 10.027C74.0126 9.78239 74.0337 9.53513 74.0359 9.28734C74.0536 8.8139 73.9722 8.34196 73.7967 7.90162C73.6212 7.46128 73.3556 7.06221 73.0167 6.72985Z" fill="white"/>
<path d="M17.1249 29.4966L15.3256 39.6765H12.2681L12.9978 35.4265L9.7767 39.6765L8.05289 35.3889L7.31052 39.6765H4.25296L6.05226 29.4966H9.12241L10.8462 33.7591L14.0674 29.4966H17.1249Z" fill="#6D7582"/>
<path d="M26.2473 39.6765H23.1772L23.0765 38.3225H20.1951L19.6163 39.6765H16.5462L20.9123 29.4966H25.5049L26.2473 39.6765ZM22.9004 35.7775L22.6487 32.5807L21.3024 35.7775H22.9004Z" fill="#6D7582"/>
<path d="M38.2132 31.4649C38.2137 31.5996 38.201 31.7339 38.1754 31.8661L37.9112 33.3956C37.8483 33.7466 37.5589 34.1478 37.043 34.5866C37.345 34.9752 37.5086 35.3137 37.5086 35.602C37.5086 35.6647 37.5211 35.7149 37.5211 35.7776L36.8165 39.6765H33.7589L34.451 35.7776H31.2047L30.5127 39.6765H27.4551L29.2544 29.4967H36.2377C36.5028 29.4882 36.7668 29.5339 37.0135 29.631C37.2602 29.728 37.4843 29.8743 37.6721 30.0608C37.8506 30.2479 37.9903 30.4682 38.0832 30.7091C38.176 30.9501 38.2202 31.2069 38.2132 31.4649ZM35.0046 32.5431H31.7583L31.6073 33.3956H34.8536L35.0046 32.5431Z" fill="#6D7582"/>
<path d="M49.5879 29.4966L45.3601 34.5865L47.776 39.6765H44.1899L42.2145 35.4767L41.4721 39.6765H38.4145L40.2138 29.4966H43.2714L42.5165 33.6964L46.0018 29.4966H49.5879Z" fill="#6D7582"/>
<path d="M59.289 29.4966L58.7479 32.5556H53.2745L53.1235 33.4081H58.5844L58.1691 35.7901H52.7083L52.5573 36.6426H58.0181L57.4771 39.7015H48.9587L50.758 29.5217H59.289V29.4966Z" fill="#6D7582"/>
<path d="M70.2736 29.4966L69.7326 32.5556H66.5744L65.3161 39.689H62.2585L63.5168 32.5556H60.3712L60.9122 29.4966H70.2736Z" fill="#6D7582"/>
<path d="M80 0.298485L72.8783 39.6388H71.9723L79.0437 0.298485H80Z" fill="white"/>
<path d="M8.02768 0.298485L0.905945 39.6388H0L7.0714 0.298485H8.02768Z" fill="white"/>
<path d="M32.0982 0.298485L27.2917 26.9516L26.3606 26.9641L31.1545 0.298485H32.0982Z" fill="white"/>
<path d="M55.6903 0.298485L50.9216 26.6758H49.9904L54.7341 0.298485H55.6903Z" fill="white"/>
</svg>
