<svg width="80" height="40" viewBox="0 0 80 40" fill="none" xmlns="http://www.w3.org/2000/svg">
<path d="M26.3101 11.0867L27.3041 5.53291H14.5958C13.4004 5.53291 12.2931 5.95916 11.2991 6.79912C10.3051 7.63909 9.68855 8.6671 9.48723 9.85809L7.75084 19.737C7.71116 19.9817 7.69013 20.2289 7.68793 20.4767C7.68793 21.5047 8.02766 22.3572 8.70712 23.0342C9.38657 23.7112 10.2548 24.0497 11.3117 24.0497H24.0201L25.0141 18.4959H13.5388L14.8474 11.0867H26.3101Z" fill="#F16F3B"/>
<path d="M46.7065 5.52044H38.3391L36.0365 10.8987H41.7238V14.7725H34.3756L30.3995 24.0497H35.9988L37.7729 19.8499H42.1391L42.4914 24.0497H48.0655L46.7065 5.52044Z" fill="#F16F3B"/>
<path d="M73.0167 6.53591C72.3372 5.85893 71.469 5.52044 70.4121 5.52044H57.7037L56.7474 10.8987H68.8393L68.0717 14.76H56.068L54.4197 24.0497H59.9937L60.6858 19.8625H66.587L65.895 24.0497H71.469L72.4756 19.1855C72.4775 19.0809 72.4733 18.9762 72.4631 18.8721C72.4631 18.333 72.1862 17.7187 71.62 17.0166C72.5763 16.2143 73.1048 15.4871 73.2054 14.8478L73.973 9.83307C74.0126 9.58845 74.0337 9.34119 74.0359 9.09341C74.0536 8.61996 73.9722 8.14802 73.7967 7.70768C73.6212 7.26734 73.3556 6.86827 73.0167 6.53591Z" fill="#F16F3B"/>
<path d="M17.1249 29.3027L15.3256 39.4825H12.2681L12.9978 35.2326L9.7767 39.4825L8.05289 35.195L7.31052 39.4825H4.25296L6.05226 29.3027H9.12241L10.8462 33.5652L14.0674 29.3027H17.1249Z" fill="white"/>
<path d="M26.2473 39.4825H23.1772L23.0765 38.1286H20.1951L19.6163 39.4825H16.5462L20.9123 29.3027H25.5049L26.2473 39.4825ZM22.9004 35.5836L22.6487 32.3867L21.3024 35.5836H22.9004Z" fill="white"/>
<path d="M38.2132 31.271C38.2137 31.4056 38.201 31.54 38.1754 31.6722L37.9112 33.2016C37.8483 33.5527 37.5589 33.9538 37.043 34.3926C37.345 34.7813 37.5086 35.1198 37.5086 35.4081C37.5086 35.4708 37.5211 35.5209 37.5211 35.5836L36.8165 39.4825H33.759L34.451 35.5836H31.2047L30.5127 39.4825H27.4551L29.2544 29.3027H36.2377C36.5028 29.2943 36.7668 29.34 37.0135 29.437C37.2602 29.534 37.4843 29.6803 37.6721 29.8669C37.8506 30.0539 37.9903 30.2742 38.0832 30.5152C38.176 30.7561 38.2202 31.013 38.2132 31.271ZM35.0046 32.3491H31.7583L31.6073 33.2016H34.8536L35.0046 32.3491Z" fill="white"/>
<path d="M49.5879 29.3027L45.3601 34.3926L47.776 39.4825H44.1899L42.2145 35.2827L41.4721 39.4825H38.4145L40.2138 29.3027H43.2714L42.5165 33.5025L46.0018 29.3027H49.5879Z" fill="white"/>
<path d="M59.289 29.3027L58.7479 32.3617H53.2745L53.1235 33.2142H58.5844L58.1691 35.5961H52.7083L52.5573 36.4486H58.0181L57.4771 39.5076H48.9587L50.758 29.3278H59.289V29.3027Z" fill="white"/>
<path d="M70.2736 29.3027L69.7326 32.3617H66.5744L65.3161 39.4951H62.2585L63.5168 32.3617H60.3712L60.9122 29.3027H70.2736Z" fill="white"/>
<path d="M80 0.104546L72.8783 39.4448H71.9723L79.0437 0.104546H80Z" fill="#F16F3B"/>
<path d="M8.02768 0.104546L0.905945 39.4448H0L7.0714 0.104546H8.02768Z" fill="#F16F3B"/>
<path d="M32.0982 0.104546L27.2917 26.7577L26.3606 26.7702L31.1545 0.104546H32.0982Z" fill="#F16F3B"/>
<path d="M55.6903 0.104546L50.9216 26.4818H49.9904L54.7341 0.104546H55.6903Z" fill="#F16F3B"/>
</svg>
