<svg width="80" height="41" viewBox="0 0 80 41" fill="none" xmlns="http://www.w3.org/2000/svg">
<path d="M26.3101 11.6837L27.3041 6.12988H14.5958C13.4004 6.12988 12.2931 6.55613 11.2991 7.39609C10.3051 8.23606 9.68855 9.26407 9.48723 10.4551L7.75084 20.334C7.71116 20.5786 7.69013 20.8259 7.68793 21.0737C7.68793 22.1017 8.02766 22.9542 8.70712 23.6312C9.38657 24.3082 10.2548 24.6466 11.3117 24.6466H24.0201L25.0141 19.0929H13.5388L14.8474 11.6837H26.3101Z" fill="#F16F3B"/>
<path d="M46.7065 6.11741H38.3391L36.0365 11.4957H41.7238V15.3695H34.3756L30.3995 24.6467H35.9988L37.7729 20.4469H42.1391L42.4914 24.6467H48.0655L46.7065 6.11741Z" fill="#F16F3B"/>
<path d="M73.0167 7.13288C72.3372 6.4559 71.469 6.11741 70.4121 6.11741H57.7037L56.7474 11.4957H68.8393L68.0717 15.357H56.068L54.4197 24.6467H59.9937L60.6858 20.4594H66.587L65.895 24.6467H71.469L72.4756 19.7824C72.4775 19.6778 72.4733 19.5732 72.4631 19.469C72.4631 18.93 72.1862 18.3156 71.62 17.6136C72.5763 16.8112 73.1048 16.0841 73.2054 15.4447L73.973 10.43C74.0126 10.1854 74.0337 9.93816 74.0359 9.69038C74.0536 9.21693 73.9722 8.74499 73.7967 8.30465C73.6212 7.86431 73.3556 7.46524 73.0167 7.13288Z" fill="#F16F3B"/>
<path d="M17.1249 29.8997L15.3256 40.0795H12.2681L12.9978 35.8295L9.7767 40.0795L8.05289 35.7919L7.31052 40.0795H4.25296L6.05226 29.8997H9.12241L10.8462 34.1621L14.0674 29.8997H17.1249Z" fill="#040404"/>
<path d="M26.2473 40.0795H23.1772L23.0765 38.7255H20.1951L19.6163 40.0795H16.5462L20.9123 29.8997H25.5049L26.2473 40.0795ZM22.9004 36.1806L22.6487 32.9837L21.3024 36.1806H22.9004Z" fill="#040404"/>
<path d="M38.2132 31.868C38.2137 32.0026 38.201 32.1369 38.1754 32.2691L37.9112 33.7986C37.8483 34.1496 37.5589 34.5508 37.043 34.9896C37.345 35.3782 37.5086 35.7167 37.5086 36.0051C37.5086 36.0678 37.5211 36.1179 37.5211 36.1806L36.8165 40.0795H33.7589L34.451 36.1806H31.2047L30.5127 40.0795H27.4551L29.2544 29.8997H36.2377C36.5028 29.8913 36.7668 29.937 37.0135 30.034C37.2602 30.131 37.4843 30.2773 37.6721 30.4638C37.8506 30.6509 37.9903 30.8712 38.0832 31.1122C38.176 31.3531 38.2202 31.6099 38.2132 31.868ZM35.0046 32.9461H31.7583L31.6073 33.7986H34.8536L35.0046 32.9461Z" fill="#040404"/>
<path d="M49.5879 29.8997L45.3601 34.9896L47.776 40.0795H44.1899L42.2145 35.8797L41.4721 40.0795H38.4145L40.2138 29.8997H43.2714L42.5165 34.0995L46.0018 29.8997H49.5879Z" fill="#040404"/>
<path d="M59.289 29.8997L58.7479 32.9586H53.2745L53.1235 33.8111H58.5844L58.1691 36.1931H52.7083L52.5573 37.0456H58.0181L57.4771 40.1046H48.9587L50.758 29.9247H59.289V29.8997Z" fill="#040404"/>
<path d="M70.2736 29.8997L69.7326 32.9586H66.5744L65.3161 40.092H62.2585L63.5168 32.9586H60.3712L60.9122 29.8997H70.2736Z" fill="#040404"/>
<path d="M80 0.701515L72.8783 40.0418H71.9723L79.0437 0.701515H80Z" fill="#F16F3B"/>
<path d="M8.02768 0.701515L0.905945 40.0418H0L7.0714 0.701515H8.02768Z" fill="#F16F3B"/>
<path d="M32.0982 0.701515L27.2917 27.3546L26.3606 27.3672L31.1545 0.701515H32.0982Z" fill="#F16F3B"/>
<path d="M55.6903 0.701515L50.9216 27.0788H49.9904L54.7341 0.701515H55.6903Z" fill="#F16F3B"/>
</svg>
